<svg width="166" height="16" viewBox="0 0 166 16" fill="none" xmlns="http://www.w3.org/2000/svg">
<g clip-path="url(#clip0_0_6)">
<path d="M8.49219 0.392857C8.25112 0.357142 7.42076 0.285713 6.45647 0.285713C4.43862 0.285713 3.05469 1.51786 3.05469 3.77678V5.72321H0.777902V8.36607H3.05469V15.1429H5.78683V8.36607H8.05469L8.4029 5.72321H5.78683V4.03571C5.78683 3.27678 5.99219 2.75 7.0904 2.75H8.49219V0.392857Z" fill="#E8E8E8"/>
<path d="M47.5346 5.92857C47.0167 6.15178 46.4542 6.3125 45.8739 6.375C46.4721 6.01786 46.9275 5.45536 47.1417 4.78571C46.5882 5.11607 45.9632 5.35714 45.3114 5.48214C44.7846 4.91964 44.0346 4.57143 43.2042 4.57143C41.606 4.57143 40.3203 5.86607 40.3203 7.45536C40.3203 7.67857 40.3471 7.90178 40.3917 8.11607C37.9989 7.99107 35.865 6.84821 34.4453 5.09821C34.1953 5.52678 34.0525 6.01786 34.0525 6.55357C34.0525 7.55357 34.5614 8.4375 35.3382 8.95536C34.865 8.9375 34.4185 8.80357 34.0346 8.58929C34.0346 8.59821 34.0346 8.61607 34.0346 8.625C34.0346 10.0268 35.0257 11.1875 36.3471 11.4554C36.106 11.5179 35.8471 11.5536 35.5882 11.5536C35.4007 11.5536 35.2221 11.5357 35.0435 11.5089C35.4096 12.6518 36.4721 13.4821 37.74 13.5089C36.7489 14.2857 35.5078 14.7411 34.1596 14.7411C33.9185 14.7411 33.6953 14.7321 33.4632 14.7054C34.74 15.5268 36.2578 16 37.8917 16C43.1953 16 46.0971 11.6071 46.0971 7.79464C46.0971 7.66964 46.0971 7.54464 46.0882 7.41964C46.6507 7.00893 47.1417 6.5 47.5346 5.92857Z" fill="#E8E8E8"/>
<path d="M74.7567 6.86607H71.8103V15.7143H74.7567V6.86607ZM74.9442 4.13393C74.9353 3.26786 74.3103 2.60714 73.3013 2.60714C72.3013 2.60714 71.6406 3.26786 71.6406 4.13393C71.6406 4.98214 72.2746 5.66071 73.2656 5.66071H73.2835C74.3103 5.66071 74.9531 4.98214 74.9442 4.13393ZM85.3549 10.6429C85.3549 7.92857 83.9085 6.66071 81.971 6.66071C80.3817 6.66071 79.6853 7.54464 79.3013 8.15179H79.3192V6.86607H76.3817C76.3817 6.86607 76.4174 7.69643 76.3817 15.7143H79.3192V10.7768C79.3192 10.5089 79.346 10.25 79.4174 10.0536C79.6317 9.52679 80.1138 8.98214 80.9263 8.98214C81.9888 8.98214 82.4174 9.79464 82.4174 10.9821V15.7143H85.3549V10.6429Z" fill="#5474FD"/>
<path d="M117.848 12.3571V7.86607L122.17 10.125L117.848 12.3571ZM119.5 4.66071C116.134 4.66071 113.902 4.82143 113.902 4.82143C113.589 4.85714 112.902 4.85714 112.295 5.5C112.295 5.5 111.804 5.98214 111.661 7.08928C111.491 8.38393 111.5 9.67857 111.5 9.67857V10.8929C111.5 10.8929 111.491 12.1875 111.661 13.4821C111.804 14.5804 112.295 15.0714 112.295 15.0714C112.902 15.7054 113.705 15.6875 114.062 15.75C114.062 15.75 115.339 15.875 119.5 15.9107C122.866 15.9107 125.098 15.7411 125.098 15.7411C125.411 15.7054 126.098 15.7054 126.705 15.0714C126.705 15.0714 127.196 14.5804 127.339 13.4821C127.509 12.1875 127.5 10.8929 127.5 10.8929V9.67857C127.5 9.67857 127.509 8.38393 127.339 7.08928C127.196 5.98214 126.705 5.5 126.705 5.5C126.098 4.85714 125.411 4.85714 125.098 4.82143C125.098 4.82143 122.866 4.66071 119.5 4.66071Z" fill="#E8E8E8"/>
<path d="M165.855 9.28571C165.855 5.5 162.783 2.42857 158.998 2.42857C155.212 2.42857 152.141 5.5 152.141 9.28571C152.141 12.0982 153.828 14.5089 156.248 15.5714C156.23 15.0893 156.239 14.5089 156.364 13.9911C156.364 13.9911 156.498 13.4375 157.248 10.2589C157.025 9.82143 157.025 9.16964 157.025 9.16964C157.025 8.15179 157.614 7.39286 158.346 7.39286C158.971 7.39286 159.275 7.86607 159.275 8.42857C159.275 9.05357 158.873 9.99107 158.667 10.8571C158.498 11.5893 159.033 12.1786 159.748 12.1786C161.051 12.1786 161.926 10.5089 161.926 8.53571C161.926 7.02679 160.908 5.90178 159.069 5.90178C156.989 5.90178 155.694 7.45536 155.694 9.1875C155.694 9.78571 155.873 10.2054 156.15 10.5357C156.275 10.6875 156.292 10.7411 156.248 10.9196C156.212 11.0446 156.141 11.3482 156.105 11.4643C156.06 11.6429 155.917 11.7054 155.766 11.6429C154.81 11.25 154.364 10.1964 154.364 9.01786C154.364 7.07143 156.007 4.73214 159.257 4.73214C161.882 4.73214 163.605 6.63393 163.605 8.66071C163.605 11.3571 162.105 13.3661 159.9 13.3661C159.158 13.3661 158.462 12.9643 158.23 12.5089C157.828 14.0893 157.748 14.3929 157.748 14.3929C157.605 14.9196 157.31 15.4464 157.051 15.8571C157.676 16.0446 158.319 16.1429 158.998 16.1429C162.783 16.1429 165.855 13.0714 165.855 9.28571Z" fill="#E8E8E8"/>
</g>
<defs>
<clipPath id="clip0_0_6">
<rect width="166" height="16" fill="white"/>
</clipPath>
</defs>
</svg>
