<svg width="186" height="20" viewBox="0 0 186 20" fill="none" xmlns="http://www.w3.org/2000/svg">
<g clip-path="url(#clip0_0_94)">
<path d="M20.464 1.336C22.304 1.336 23.768 1.712 24.856 2.464C25.944 3.2 26.488 4.304 26.488 5.776C26.488 6.864 26.216 7.776 25.672 8.512C25.144 9.232 24.416 9.776 23.488 10.144C22.576 10.496 21.528 10.672 20.344 10.672L19.792 8.8C21.248 8.8 22.536 9 23.656 9.4C24.792 9.8 25.688 10.376 26.344 11.128C27 11.864 27.328 12.752 27.328 13.792C27.328 14.752 27.152 15.568 26.8 16.24C26.464 16.896 26 17.432 25.408 17.848C24.832 18.248 24.176 18.544 23.44 18.736C22.704 18.912 21.944 19 21.16 19H15.28V1.336H20.464ZM20.872 8.56C21.56 8.56 22.064 8.352 22.384 7.936C22.72 7.52 22.888 7.048 22.888 6.52C22.888 5.912 22.68 5.456 22.264 5.152C21.864 4.848 21.32 4.696 20.632 4.696H18.76V8.56H20.872ZM20.992 15.76C21.504 15.76 21.968 15.696 22.384 15.568C22.8 15.424 23.128 15.208 23.368 14.92C23.608 14.616 23.728 14.24 23.728 13.792C23.728 13.28 23.584 12.896 23.296 12.64C23.008 12.368 22.632 12.184 22.168 12.088C21.72 11.976 21.248 11.92 20.752 11.92H18.76V15.76H20.992ZM48.0751 1.336V19H44.5951V11.824H36.6991V19H33.2191V1.336H36.6991V8.464H44.5951V1.336H48.0751ZM60.3773 1.336C61.4813 1.336 62.4653 1.48 63.3293 1.768C64.1933 2.04 64.9133 2.44 65.4893 2.968C66.0813 3.48 66.5293 4.104 66.8333 4.84C67.1373 5.56 67.2893 6.376 67.2893 7.288C67.2893 8.008 67.1773 8.728 66.9533 9.448C66.7453 10.168 66.3933 10.824 65.8973 11.416C65.4173 12.008 64.7773 12.488 63.9773 12.856C63.1773 13.208 62.1853 13.384 61.0013 13.384H58.5053V19H55.0253V1.336H60.3773ZM60.9773 10.024C61.5053 10.024 61.9453 9.936 62.2973 9.76C62.6493 9.584 62.9213 9.36 63.1133 9.088C63.3213 8.816 63.4653 8.536 63.5453 8.248C63.6413 7.944 63.6893 7.664 63.6893 7.408C63.6893 7.216 63.6573 6.976 63.5933 6.688C63.5453 6.384 63.4333 6.08 63.2573 5.776C63.0813 5.472 62.8093 5.216 62.4413 5.008C62.0893 4.8 61.6093 4.696 61.0013 4.696H58.5053V10.024H60.9773ZM64.2413 12.184L68.6093 19H64.5533L60.0893 12.28L64.2413 12.184ZM72.1891 10.192C72.1891 8.976 72.4211 7.824 72.8851 6.736C73.3491 5.648 73.9891 4.688 74.8051 3.856C75.6371 3.008 76.5971 2.344 77.6851 1.864C78.7731 1.384 79.9411 1.144 81.1891 1.144C82.4211 1.144 83.5811 1.384 84.6691 1.864C85.7571 2.344 86.7171 3.008 87.5491 3.856C88.3971 4.688 89.0531 5.648 89.5171 6.736C89.9971 7.824 90.2371 8.976 90.2371 10.192C90.2371 11.44 89.9971 12.608 89.5171 13.696C89.0531 14.784 88.3971 15.744 87.5491 16.576C86.7171 17.392 85.7571 18.032 84.6691 18.496C83.5811 18.96 82.4211 19.192 81.1891 19.192C79.9411 19.192 78.7731 18.96 77.6851 18.496C76.5971 18.032 75.6371 17.392 74.8051 16.576C73.9891 15.744 73.3491 14.784 72.8851 13.696C72.4211 12.608 72.1891 11.44 72.1891 10.192ZM75.7891 10.192C75.7891 10.976 75.9251 11.712 76.1971 12.4C76.4851 13.072 76.8771 13.672 77.3731 14.2C77.8851 14.712 78.4691 15.112 79.1251 15.4C79.7971 15.688 80.5251 15.832 81.3091 15.832C82.0611 15.832 82.7571 15.688 83.3971 15.4C84.0531 15.112 84.6211 14.712 85.1011 14.2C85.5811 13.672 85.9571 13.072 86.2291 12.4C86.5011 11.712 86.6371 10.976 86.6371 10.192C86.6371 9.392 86.4931 8.648 86.2051 7.96C85.9331 7.272 85.5491 6.672 85.0531 6.16C84.5731 5.632 84.0051 5.224 83.3491 4.936C82.6931 4.648 81.9811 4.504 81.2131 4.504C80.4451 4.504 79.7331 4.648 79.0771 4.936C78.4211 5.224 77.8451 5.632 77.3491 6.16C76.8531 6.672 76.4691 7.272 76.1971 7.96C75.9251 8.648 75.7891 9.392 75.7891 10.192ZM96.1066 19V0.615999H96.1306L105.947 14.536L104.459 14.2L114.251 0.615999H114.299V19H110.819V8.464L111.035 10.264L105.059 18.76H105.011L98.8666 10.264L99.4666 8.608V19H96.1066ZM119.272 19L127.24 0.639999H127.432L135.4 19H131.368L126.28 6.088L128.8 4.36L122.704 19H119.272ZM124.72 12.616H130.024L131.248 15.544H123.64L124.72 12.616ZM138.077 10.192C138.077 8.976 138.309 7.824 138.773 6.736C139.237 5.648 139.877 4.688 140.693 3.856C141.525 3.008 142.485 2.344 143.573 1.864C144.661 1.384 145.829 1.144 147.077 1.144C148.309 1.144 149.469 1.384 150.557 1.864C151.645 2.344 152.605 3.008 153.437 3.856C154.285 4.688 154.941 5.648 155.405 6.736C155.885 7.824 156.125 8.976 156.125 10.192C156.125 11.44 155.885 12.608 155.405 13.696C154.941 14.784 154.285 15.744 153.437 16.576C152.605 17.392 151.645 18.032 150.557 18.496C149.469 18.96 148.309 19.192 147.077 19.192C145.829 19.192 144.661 18.96 143.573 18.496C142.485 18.032 141.525 17.392 140.693 16.576C139.877 15.744 139.237 14.784 138.773 13.696C138.309 12.608 138.077 11.44 138.077 10.192ZM141.677 10.192C141.677 10.976 141.813 11.712 142.085 12.4C142.373 13.072 142.765 13.672 143.261 14.2C143.773 14.712 144.357 15.112 145.013 15.4C145.685 15.688 146.413 15.832 147.197 15.832C147.949 15.832 148.645 15.688 149.285 15.4C149.941 15.112 150.509 14.712 150.989 14.2C151.469 13.672 151.845 13.072 152.117 12.4C152.389 11.712 152.525 10.976 152.525 10.192C152.525 9.392 152.381 8.648 152.093 7.96C151.821 7.272 151.437 6.672 150.941 6.16C150.461 5.632 149.893 5.224 149.237 4.936C148.581 4.648 147.869 4.504 147.101 4.504C146.333 4.504 145.621 4.648 144.965 4.936C144.309 5.224 143.733 5.632 143.237 6.16C142.741 6.672 142.357 7.272 142.085 7.96C141.813 8.648 141.677 9.392 141.677 10.192ZM177.81 19.72L164.418 7.624L165.45 8.2L165.522 19H161.994V0.639999H162.138L175.242 12.688L174.474 12.352L174.402 1.336H177.906V19.72H177.81Z" fill="white"/>
</g>
<defs>
<clipPath id="clip0_0_94">
<rect width="186" height="20" fill="white"/>
</clipPath>
</defs>
</svg>
